<?xml version="1.0" standalone="no"?>
<!DOCTYPE svg PUBLIC "-//W3C//DTD SVG 20010904//EN"
 "http://www.w3.org/TR/2001/REC-SVG-20010904/DTD/svg10.dtd">
<svg version="1.0" xmlns="http://www.w3.org/2000/svg"
 width="512.000000pt" height="512.000000pt" viewBox="0 0 512.000000 512.000000"
 preserveAspectRatio="xMidYMid meet">

<g transform="translate(0.000000,512.000000) scale(0.100000,-0.100000)"
fill="#000000" stroke="none">
<path d="M200 4089 c-59 -12 -117 -53 -157 -112 -56 -84 -56 -190 0 -274 42
-62 99 -101 167 -113 37 -7 843 -9 2385 -8 2110 3 2333 5 2365 19 52 24 97 65
128 118 23 39 27 57 27 121 0 64 -4 82 -27 121 -31 53 -76 94 -128 118 -32 15
-254 16 -2375 17 -1325 1 -2360 -2 -2385 -7z"/>
<path d="M958 2806 c-48 -13 -61 -21 -112 -65 -103 -92 -98 -275 9 -370 82
-72 -65 -66 1705 -66 1770 0 1623 -6 1705 66 112 99 112 279 0 378 -82 72 62
66 -1685 68 -1248 1 -1585 -1 -1622 -11z"/>
<path d="M1999 1531 c-139 -28 -231 -169 -200 -306 16 -71 61 -130 131 -169
l55 -31 575 0 575 0 55 30 c183 101 183 349 0 450 l-55 30 -550 2 c-302 0
-566 -2 -586 -6z"/>
</g>
</svg>
